# File created by Blade
# Date/Time:  Tue Sep 30 19:10:59 2014
#---------------------------------------------------------
:version 1.10
:name HOM
:units
  mass 1.0
  length 1.000000
  angle deg
:documentation
     Acclaim Skeleton File
:root
   axis xyz
   order TX TY TZ RX RY RZ
   position 0.000000 0.000000 0.000000
   orientation 0 0 0
:bonedata
   begin
      id 1
      name Spine_dum
      direction 0.000000 1.000000 0.000000
      length 7.508948
      axis 0.0 0.0 0.0 xyz
   end
   begin
      id 2
      name LeftUpLeg_dum
      direction 1.000000 0.000000 0.000000
      length 3.000560
      axis 0.0 0.0 0.0 xyz
   end
   begin
      id 3
      name RightUpLeg_dum
      direction -1.000000 0.000000 0.000000
      length 3.000560
      axis 0.0 0.0 0.0 xyz
   end
   begin
      id 4
      name Spine
      direction 0.000000 1.000000 0.000000
      length 0.000000
      axis 0.0 0.0 0.0 xyz
      dof rx ry rz
   end
   begin
      id 5
      name Spine_dum1
      direction 0.000000 1.000000 0.000000
      length 13.861154
      axis 0.0 0.0 0.0 xyz
   end
   begin
      id 6
      name Spine_dum2
      direction 0.000000 1.000000 0.000000
      length 8.204781
      axis 0.0 0.0 0.0 xyz
   end
   begin
      id 7
      name Spine_dum3
      direction 0.000000 1.000000 0.000000
      length 8.204781
      axis 0.0 0.0 0.0 xyz
   end
   begin
      id 8
      name Head
      direction 0.000000 1.000000 0.000000
      length 4.527550
      axis 0.0 0.0 0.0 xyz
      dof rx ry rz
   end
   begin
      id 9
      name LeftShoulder
      direction 1.000000 0.000000 0.000000
      length 6.635956
      axis 0.0 0.0 -90.0 xyz
      dof rx ry rz
   end
   begin
      id 10
      name LeftArm
      direction 1.000000 0.000000 0.000000
      length 10.274218
      axis 0.0 0.0 -90.0 xyz
      dof rx ry rz
   end
   begin
      id 11
      name LeftForeArm
      direction 1.000000 0.000000 0.000000
      length 8.522147
      axis 0.0 0.0 -90.0 xyz
      dof ry rz rx
   end
   begin
      id 12
      name LeftHand
      direction 0.000000 0.000000 0.000000
      length 0.000000
      axis 0.0 0.0 -90.0 xyz
      dof rx ry rz
   end
   begin
      id 13
      name LeftHand_dum1
      direction 0.000000 0.000000 0.000000
      length 0.000000
      axis 0.0 0.0 -90.0 xyz
   end
   begin
      id 14
      name LeftHand_dum2
      direction 1.000000 0.000000 0.000000
      length 3.937000
      axis 0.0 0.0 -90.0 xyz
   end
   begin
      id 15
      name LeftHandThumb1
      direction 0.000000 0.000000 1.000000
      length 3.937000
      axis 0.0 0.0 -90.0 xyz
      dof rx rz ry
   end
   begin
      id 16
      name RightShoulder
      direction -1.000000 0.000000 0.000000
      length 6.635956
      axis 0.0 0.0 90.0 xyz
      dof rx ry rz
   end
   begin
      id 17
      name RightArm
      direction -1.000000 0.000000 0.000000
      length 10.274218
      axis 0.0 0.0 90.0 xyz
      dof rx ry rz
   end
   begin
      id 18
      name RightForeArm
      direction -1.000000 0.000000 0.000000
      length 8.522147
      axis 0.0 0.0 90.0 xyz
      dof ry rz rx
   end
   begin
      id 19
      name RightHand
      direction 0.000000 0.000000 0.000000
      length 0.000000
      axis 0.0 0.0 90.0 xyz
      dof rx ry rz
   end
   begin
      id 20
      name RightHand_dum1
      direction 0.000000 0.000000 0.000000
      length 0.000000
      axis 0.0 0.0 90.0 xyz
   end
   begin
      id 21
      name RightHand_dum2
      direction -1.000000 0.000000 0.000000
      length 3.937000
      axis 0.0 0.0 90.0 xyz
   end
   begin
      id 22
      name RightHandThumb1
      direction 0.000000 0.000000 1.000000
      length 3.937000
      axis 0.0 0.0 90.0 xyz
      dof rx rz ry
   end
   begin
      id 23
      name LeftUpLeg
      direction 0.000000 -1.000000 0.000000
      length 16.490845
      axis 0.0 0.0 0.0 xyz
      dof rx ry rz
   end
   begin
      id 24
      name LeftLeg
      direction 0.000000 -1.000000 0.000000
      length 14.556576
      axis 0.0 0.0 0.0 xyz
      dof rx ry rz
   end
   begin
      id 25
      name LeftFoot
      direction 0.000000 -0.258819 0.965926
      length 4.831116
      axis 15.0 0.0 0.0 xyz
      dof rx ry rz
   end
   begin
      id 26
      name LeftToeBase
      direction 0.000000 0.000000 1.000000
      length 2.952750
      axis 0.0 0.0 0.0 xyz
      dof rx ry rz
   end
   begin
      id 27
      name RightUpLeg
      direction 0.000000 -1.000000 0.000000
      length 16.490845
      axis 0.0 0.0 0.0 xyz
      dof rx ry rz
   end
   begin
      id 28
      name RightLeg
      direction 0.000000 -1.000000 0.000000
      length 14.556576
      axis 0.0 0.0 0.0 xyz
      dof rx ry rz
   end
   begin
      id 29
      name RightFoot
      direction 0.000000 -0.258819 0.965926
      length 4.831116
      axis 15.0 0.0 0.0 xyz
      dof rx ry rz
   end
   begin
      id 30
      name RightToeBase
      direction 0.000000 0.000000 1.000000
      length 2.952750
      axis 0.0 0.0 0.0 xyz
      dof rx ry rz
   end
:hierarchy
   begin
      root Spine_dum LeftUpLeg_dum RightUpLeg_dum
      Spine_dum Spine
      LeftUpLeg_dum LeftUpLeg
      RightUpLeg_dum RightUpLeg
      Spine Spine_dum1 Spine_dum2 Spine_dum3
      Spine_dum1 Head
      Spine_dum2 LeftShoulder
      Spine_dum3 RightShoulder
      LeftShoulder LeftArm
      LeftArm LeftForeArm
      LeftForeArm LeftHand
      LeftHand LeftHand_dum1 LeftHand_dum2
      LeftHand_dum1 LeftHandThumb1
      RightShoulder RightArm
      RightArm RightForeArm
      RightForeArm RightHand
      RightHand RightHand_dum1 RightHand_dum2
      RightHand_dum1 RightHandThumb1
      LeftUpLeg LeftLeg
      LeftLeg LeftFoot
      LeftFoot LeftToeBase
      RightUpLeg RightLeg
      RightLeg RightFoot
      RightFoot RightToeBase
   end

# File created by Blade
# Date/Time:  Wed Sep 24 20:21:23 2014
# Frame Rate: 120.000 fps
#------------------------------------------------------
:FULLY-SPECIFIED
:DEGREES
127
root -6.754679 32.479460 -5.573113 10.789966 5.015468 2.674222
Spine -3.276685 -1.355189 2.329671
Head -15.289443 -3.520992 3.111121
LeftShoulder -2.273042 9.069280 16.857189
LeftArm 41.349317 0.235198 -61.378693
LeftForeArm -7.112135 -0.000000 23.286778
LeftHand -22.567620 -0.000000 -6.165992
LeftHandThumb1 -26.253704 0.000000 33.147579
RightShoulder -16.141673 12.875087 -31.067178
RightArm -11.187822 -4.964173 69.893926
RightForeArm -25.938836 -0.000000 15.923849
RightHand -8.258341 -0.000000 5.838395
RightHandThumb1 -24.326973 -0.000000 -32.862282
LeftUpLeg -23.869660 13.393207 2.751785
LeftLeg 32.005067 -0.000000 -0.000000
LeftFoot -9.849333 3.505735 -21.688170
LeftToeBase -2.781119 -0.000000 0.000000
RightUpLeg -18.345257 -2.428362 2.668961
RightLeg 21.764794 -0.000000 -0.000000
RightFoot -16.503268 -14.837094 -8.067180
RightToeBase 1.068289 -0.000000 -0.000000
128
root -6.795883 32.473324 -5.586905 10.764082 5.043804 2.728500
Spine -3.163978 -1.435309 2.365055
Head -15.374901 -3.395080 3.000723
LeftShoulder -2.103111 8.941857 16.667995
LeftArm 41.653363 1.083125 -61.672114
LeftForeArm -7.125050 -0.000000 23.203531
LeftHand -22.587300 -0.000000 -5.938511
LeftHandThumb1 -26.253704 0.000000 33.147579
RightShoulder -16.078450 13.041814 -31.061152
RightArm -11.412101 -5.111417 70.346244
RightForeArm -25.820775 -0.000000 16.022462
RightHand -8.184826 0.000000 5.992269
RightHandThumb1 -24.326973 -0.000000 -32.862282
LeftUpLeg -24.193291 13.567595 2.755131
LeftLeg 32.572602 -0.000000 -0.000000
LeftFoot -9.461222 3.331463 -21.625008
LeftToeBase -3.165173 -0.000000 0.000000
RightUpLeg -18.400932 -2.391708 2.682514
RightLeg 21.890749 -0.000000 -0.000000
RightFoot -16.526983 -14.889612 -8.066808
RightToeBase 1.029442 -0.000000 -0.000000
129
root -6.832822 32.465261 -5.601316 10.744971 5.086506 2.824623
Spine -3.045729 -1.575174 2.349725
Head -15.494581 -3.242091 2.933641
LeftShoulder -1.986722 8.788123 16.501238
LeftArm 41.971382 2.007620 -61.935541
LeftForeArm -7.024394 -0.000000 23.070625
LeftHand -22.694890 -0.000000 -6.107208
LeftHandThumb1 -26.253704 0.000000 33.147579
RightShoulder -16.037447 12.981429 -30.992269
RightArm -11.305160 -5.106091 70.769243
RightForeArm -25.910243 0.000000 16.040295
RightHand -8.129779 0.000000 6.089194
RightHandThumb1 -24.326973 -0.000000 -32.862282
LeftUpLeg -24.514464 13.695982 2.716490
LeftLeg 33.122865 -0.000000 -0.000000
LeftFoot -9.106055 3.184738 -21.540278
LeftToeBase -3.429421 -0.000000 0.000000
RightUpLeg -18.499121 -2.410717 2.658538
RightLeg 22.101742 -0.000000 -0.000000
RightFoot -16.614975 -14.960129 -8.062316
RightToeBase 1.051010 -0.000000 -0.000000
130
root -6.872769 32.457199 -5.614971 10.729380 5.092290 2.890910
Spine -2.935558 -1.630981 2.332279
Head -15.579389 -3.108040 2.925097
LeftShoulder -1.802099 8.608311 16.382080
LeftArm 42.233961 2.863604 -62.244220
LeftForeArm -6.859073 -0.000000 22.941515
LeftHand -22.485338 -0.000000 -6.003506
LeftHandThumb1 -26.253704 0.000000 33.147579
RightShoulder -15.988039 12.986097 -30.912649
RightArm -11.317029 -5.149632 71.149415
RightForeArm -25.886267 -0.000000 16.088049
RightHand -8.169956 0.000000 6.466353
RightHandThumb1 -24.326973 -0.000000 -32.862282
LeftUpLeg -24.827726 13.863093 2.699187
LeftLeg 33.665289 -0.000000 -0.000000
LeftFoot -8.757446 3.052117 -21.709905
LeftToeBase -3.824133 -0.000000 0.000000
RightUpLeg -18.602543 -2.407819 2.658471
RightLeg 22.319869 -0.000000 -0.000000
RightFoot -16.723070 -15.001463 -8.028225
RightToeBase 1.091546 -0.000000 -0.000000
131
root -6.913905 32.449301 -5.627175 10.699258 5.075420 2.939150
Spine -2.806641 -1.698316 2.339727
Head -15.695152 -2.966127 2.869157
LeftShoulder -1.663698 8.492877 16.239530
LeftArm 42.529706 3.663724 -62.541178
LeftForeArm -6.731924 0.000000 22.854606
LeftHand -22.398438 0.000000 -6.764605
LeftHandThumb1 -26.253704 0.000000 33.147579
RightShoulder -15.923072 13.033162 -30.869391
RightArm -11.324952 -5.245910 71.570920
RightForeArm -26.095272 -0.000000 16.059753
RightHand -8.151959 -0.000000 6.173148
RightHandThumb1 -24.326973 -0.000000 -32.862282
LeftUpLeg -25.100027 14.093819 2.714550
LeftLeg 34.150571 -0.000000 -0.000000
LeftFoot -8.343185 2.819501 -21.733199
LeftToeBase -4.299892 -0.000000 0.000000
RightUpLeg -18.643754 -2.215065 2.654266
RightLeg 22.431488 -0.000000 -0.000000
RightFoot -16.766950 -15.178533 -7.970506
RightToeBase 1.115667 -0.000000 -0.000000
132
root -6.955236 32.442975 -5.639359 10.699900 5.084357 2.957457
Spine -2.733849 -1.761463 2.396716
Head -15.805123 -2.849747 2.830794
LeftShoulder -1.491631 8.346417 16.060261
LeftArm 42.809746 4.595411 -62.661357
LeftForeArm -6.672166 -0.000000 22.744280
LeftHand -22.399414 0.000000 -6.788849
LeftHandThumb1 -26.253704 0.000000 33.147579
RightShoulder -15.847675 13.165872 -30.820097
RightArm -11.470646 -5.499422 71.935410
RightForeArm -26.016416 -0.000000 16.105183
RightHand -8.207144 0.000000 5.975811
RightHandThumb1 -24.326973 -0.000000 -32.862282
LeftUpLeg -25.462802 14.238715 2.743534
LeftLeg 34.735639 -0.000000 -0.000000
LeftFoot -7.962732 2.764625 -21.675935
LeftToeBase -4.647874 -0.000000 0.000000
RightUpLeg -18.745577 -2.257535 2.714661
RightLeg 22.582783 -0.000000 -0.000000
RightFoot -16.809299 -15.119721 -7.928042
RightToeBase 1.075450 -0.000000 -0.000000
133
root -6.990686 32.435650 -5.651829 10.703360 5.064894 3.027263
Spine -2.665463 -1.760762 2.377407
Head -15.869562 -2.774474 2.795343
LeftShoulder -1.248635 8.154315 15.903435
LeftArm 43.034565 5.502081 -62.788429
LeftForeArm -6.562806 -0.000000 22.672097
LeftHand -22.461718 -0.000000 -7.140126
LeftHandThumb1 -26.253704 0.000000 33.147579
RightShoulder -15.904592 13.092124 -30.790094
RightArm -11.358897 -5.747909 72.357494
RightForeArm -26.053006 -0.000000 16.067311
RightHand -8.317816 -0.000000 5.738505
RightHandThumb1 -24.326973 -0.000000 -32.862282
LeftUpLeg -25.774263 14.392240 2.711538
LeftLeg 35.229397 -0.000000 -0.000000
LeftFoot -7.591392 2.688566 -21.670721
LeftToeBase -5.062432 -0.000000 0.000000
RightUpLeg -18.800109 -2.039887 2.678531
RightLeg 22.652103 -0.000000 -0.000000
RightFoot -16.841304 -15.333664 -7.919662
RightToeBase 1.160441 -0.000000 -0.000000
134
root -7.024996 32.427505 -5.664494 10.709933 5.063923 3.081804
Spine -2.607792 -1.845883 2.396699
Head -15.927907 -2.713638 2.759456
LeftShoulder -1.085257 7.984238 15.668088
LeftArm 43.258656 6.829348 -62.302171
LeftForeArm -7.168478 -0.000000 22.741742
LeftHand -22.215434 0.000000 -6.621369
LeftHandThumb1 -26.253704 0.000000 33.147579
RightShoulder -15.819712 13.029007 -30.726580
RightArm -11.345573 -6.034604 72.749728
RightForeArm -25.777674 0.000000 16.201739
RightHand -8.336073 -0.000000 5.425028
RightHandThumb1 -24.326973 -0.000000 -32.862282
LeftUpLeg -26.105168 14.546335 2.681313
LeftLeg 35.741256 -0.000000 -0.000000
LeftFoot -7.238921 2.658560 -21.605457
LeftToeBase -5.474174 -0.000000 0.000000
RightUpLeg -18.910303 -2.039544 2.686932
RightLeg 22.820695 -0.000000 -0.000000
RightFoot -16.912878 -15.348132 -7.893263
RightToeBase 1.135120 -0.000000 -0.000000
135
root -7.058147 32.420079 -5.673389 10.689981 5.055030 3.147408
Spine -2.509868 -1.890301 2.394952
Head -16.039896 -2.664783 2.710790
LeftShoulder -0.917987 7.888535 15.461794
LeftArm 43.634635 7.706108 -62.367479
LeftForeArm -6.839540 0.000000 22.620560
LeftHand -22.252259 -0.000000 -6.478108
LeftHandThumb1 -26.253704 0.000000 33.147579
RightShoulder -15.788165 13.051831 -30.695193
RightArm -11.437814 -6.218438 73.139498
RightForeArm -25.773394 -0.000000 16.355667
RightHand -8.438372 -0.000000 5.411191
RightHandThumb1 -24.326973 -0.000000 -32.862282
LeftUpLeg -26.390736 14.732198 2.633141
LeftLeg 36.239123 -0.000000 -0.000000
LeftFoot -6.929594 2.675882 -21.415176
LeftToeBase -5.670474 -0.000000 0.000000
RightUpLeg -18.998865 -2.063566 2.692505
RightLeg 22.993924 -0.000000 -0.000000
RightFoot -16.953970 -15.332842 -7.932576
RightToeBase 1.100883 -0.000000 -0.000000
136
root -7.091598 32.411035 -5.686358 10.734448 5.033809 3.223893
Spine -2.483869 -1.930708 2.349449
Head -16.137126 -2.570188 2.726813
LeftShoulder -0.772931 7.785752 15.291040
LeftArm 44.015121 8.620045 -62.385237
LeftForeArm -6.640316 -0.000000 22.517662
LeftHand -22.159234 -0.000000 -6.612245
LeftHandThumb1 -26.253704 0.000000 33.147579
RightShoulder -15.713783 13.157720 -30.616191
RightArm -11.632786 -6.164788 73.436644
RightForeArm -25.709423 -0.000000 16.505173
RightHand -8.364108 -0.000000 5.219846
RightHandThumb1 -24.326973 -0.000000 -32.862282
LeftUpLeg -26.741277 14.880610 2.577326
LeftLeg 36.714787 -0.000000 -0.000000
LeftFoot -6.541341 2.637115 -21.326056
LeftToeBase -6.106648 -0.000000 0.000000
RightUpLeg -19.184870 -2.033698 2.670938
RightLeg 23.257367 -0.000000 -0.000000
RightFoot -17.053270 -15.377805 -7.907410
RightToeBase 1.148051 -0.000000 -0.000000
137
root -7.123762 32.403930 -5.701427 10.789231 4.996939 3.303215
Spine -2.470456 -1.962355 2.316929
Head -16.211745 -2.498877 2.674059
LeftShoulder -0.607479 7.618942 15.082100
LeftArm 44.290487 9.605697 -62.249586
LeftForeArm -6.616309 0.000000 22.495783
LeftHand -22.078376 0.000000 -6.723273
LeftHandThumb1 -26.253704 0.000000 33.147579
RightShoulder -15.714411 13.075828 -30.543635
RightArm -11.598075 -6.206964 73.762221
RightForeArm -25.608272 0.000000 16.666891
RightHand -8.304441 -0.000000 5.117999
RightHandThumb1 -24.326973 -0.000000 -32.862282
LeftUpLeg -27.100078 15.075942 2.494235
LeftLeg 37.180243 -0.000000 -0.000000
LeftFoot -6.135611 2.631253 -21.199782
LeftToeBase -6.553090 -0.000000 0.000000
RightUpLeg -19.366782 -1.981659 2.647462
RightLeg 23.456264 -0.000000 -0.000000
RightFoot -17.097332 -15.391887 -7.901980
RightToeBase 1.106158 -0.000000 -0.000000
138
root -7.159500 32.395218 -5.711426 10.815753 4.933326 3.376879
Spine -2.426285 -1.979446 2.248116
Head -16.308474 -2.431629 2.724932
LeftShoulder -0.439776 7.467806 14.932404
LeftArm 44.553966 10.420632 -62.318291
LeftForeArm -6.329749 -0.000000 22.437494
LeftHand -21.919222 -0.000000 -6.927716
LeftHandThumb1 -26.253704 0.000000 33.147579
RightShoulder -15.673744 13.100639 -30.464114
RightArm -11.691151 -6.186752 74.091092
RightForeArm -25.677486 -0.000000 16.819898
RightHand -8.289993 0.000000 5.030965
RightHandThumb1 -24.326973 -0.000000 -32.862282
LeftUpLeg -27.429038 15.292573 2.425637
LeftLeg 37.662668 -0.000000 -0.000000
LeftFoot -5.736094 2.642403 -21.108608
LeftToeBase -7.044967 -0.000000 0.000000
RightUpLeg -19.537774 -1.960619 2.639928
RightLeg 23.711483 -0.000000 -0.000000
RightFoot -17.158564 -15.397089 -7.942683
RightToeBase 1.097082 -0.000000 -0.000000
